<svg xmlns="http://www.w3.org/2000/svg" xmlns:xlink="http://www.w3.org/1999/xlink" width="1080" zoomAndPan="magnify" viewBox="0 0 810 374.999991" height="500" preserveAspectRatio="xMidYMid meet" version="1.0"><defs><g/><clipPath id="a02ef7212e"><rect x="0" width="417" y="0" height="124"/></clipPath><clipPath id="261f9315da"><path d="M 278.664062 158.808594 L 288.59375 158.808594 L 288.59375 168.738281 L 278.664062 168.738281 Z M 278.664062 158.808594 " clip-rule="nonzero"/></clipPath><clipPath id="abeb686629"><path d="M 283.628906 158.808594 L 285.210938 162.191406 L 288.59375 163.773438 L 285.210938 165.351562 L 283.628906 168.738281 L 282.050781 165.351562 L 278.664062 163.773438 L 282.050781 162.191406 Z M 283.628906 158.808594 " clip-rule="nonzero"/></clipPath><clipPath id="a58aa34f0a"><path d="M 0.664062 0.808594 L 10.59375 0.808594 L 10.59375 10.738281 L 0.664062 10.738281 Z M 0.664062 0.808594 " clip-rule="nonzero"/></clipPath><clipPath id="e15cb11369"><path d="M 5.628906 0.808594 L 7.210938 4.191406 L 10.59375 5.773438 L 7.210938 7.351562 L 5.628906 10.738281 L 4.050781 7.351562 L 0.664062 5.773438 L 4.050781 4.191406 Z M 5.628906 0.808594 " clip-rule="nonzero"/></clipPath><clipPath id="e7b89b021d"><rect x="0" width="11" y="0" height="11"/></clipPath><clipPath id="3ab6666c74"><path d="M 237.660156 246.292969 L 247.589844 246.292969 L 247.589844 256.226562 L 237.660156 256.226562 Z M 237.660156 246.292969 " clip-rule="nonzero"/></clipPath><clipPath id="d1a877165a"><path d="M 242.625 246.292969 L 244.207031 249.679688 L 247.589844 251.261719 L 244.207031 252.839844 L 242.625 256.226562 L 241.046875 252.839844 L 237.660156 251.261719 L 241.046875 249.679688 Z M 242.625 246.292969 " clip-rule="nonzero"/></clipPath><clipPath id="83dc087087"><path d="M 0.660156 0.292969 L 10.589844 0.292969 L 10.589844 10.226562 L 0.660156 10.226562 Z M 0.660156 0.292969 " clip-rule="nonzero"/></clipPath><clipPath id="447f68a99c"><path d="M 5.625 0.292969 L 7.207031 3.679688 L 10.589844 5.261719 L 7.207031 6.839844 L 5.625 10.226562 L 4.046875 6.839844 L 0.660156 5.261719 L 4.046875 3.679688 Z M 5.625 0.292969 " clip-rule="nonzero"/></clipPath><clipPath id="535bd81123"><rect x="0" width="11" y="0" height="11"/></clipPath><clipPath id="c296ae1238"><path d="M 399.160156 127.121094 L 409.09375 127.121094 L 409.09375 137.050781 L 399.160156 137.050781 Z M 399.160156 127.121094 " clip-rule="nonzero"/></clipPath><clipPath id="854f3deb2c"><path d="M 404.125 127.121094 L 405.707031 130.507812 L 409.09375 132.085938 L 405.707031 133.667969 L 404.125 137.050781 L 402.546875 133.667969 L 399.160156 132.085938 L 402.546875 130.507812 Z M 404.125 127.121094 " clip-rule="nonzero"/></clipPath><clipPath id="515a3ea9bf"><path d="M 0.160156 0.121094 L 10.09375 0.121094 L 10.09375 10.050781 L 0.160156 10.050781 Z M 0.160156 0.121094 " clip-rule="nonzero"/></clipPath><clipPath id="3a4a1d4f02"><path d="M 5.125 0.121094 L 6.707031 3.507812 L 10.09375 5.085938 L 6.707031 6.667969 L 5.125 10.050781 L 3.546875 6.667969 L 0.160156 5.085938 L 3.546875 3.507812 Z M 5.125 0.121094 " clip-rule="nonzero"/></clipPath><clipPath id="2db51df44a"><rect x="0" width="11" y="0" height="11"/></clipPath><clipPath id="91e067ff8e"><path d="M 203.453125 114.820312 L 213.386719 114.820312 L 213.386719 124.753906 L 203.453125 124.753906 Z M 203.453125 114.820312 " clip-rule="nonzero"/></clipPath><clipPath id="50a0fc7683"><path d="M 208.417969 114.820312 L 210 118.207031 L 213.386719 119.789062 L 210 121.367188 L 208.417969 124.753906 L 206.839844 121.367188 L 203.453125 119.789062 L 206.839844 118.207031 Z M 208.417969 114.820312 " clip-rule="nonzero"/></clipPath><clipPath id="2f205a62f4"><path d="M 0.453125 0.820312 L 10.386719 0.820312 L 10.386719 10.753906 L 0.453125 10.753906 Z M 0.453125 0.820312 " clip-rule="nonzero"/></clipPath><clipPath id="61b11e8f3f"><path d="M 5.417969 0.820312 L 7 4.207031 L 10.386719 5.789062 L 7 7.367188 L 5.417969 10.753906 L 3.839844 7.367188 L 0.453125 5.789062 L 3.839844 4.207031 Z M 5.417969 0.820312 " clip-rule="nonzero"/></clipPath><clipPath id="783cdb825f"><rect x="0" width="11" y="0" height="11"/></clipPath><clipPath id="fa174cc898"><path d="M 355.75 248.582031 L 365.683594 248.582031 L 365.683594 258.515625 L 355.75 258.515625 Z M 355.75 248.582031 " clip-rule="nonzero"/></clipPath><clipPath id="a80eef09d4"><path d="M 360.714844 248.582031 L 362.296875 251.96875 L 365.683594 253.546875 L 362.296875 255.128906 L 360.714844 258.515625 L 359.136719 255.128906 L 355.75 253.546875 L 359.136719 251.96875 Z M 360.714844 248.582031 " clip-rule="nonzero"/></clipPath><clipPath id="42e7995a42"><path d="M 0.75 0.582031 L 10.683594 0.582031 L 10.683594 10.515625 L 0.75 10.515625 Z M 0.75 0.582031 " clip-rule="nonzero"/></clipPath><clipPath id="eca089d0b2"><path d="M 5.714844 0.582031 L 7.296875 3.96875 L 10.683594 5.546875 L 7.296875 7.128906 L 5.714844 10.515625 L 4.136719 7.128906 L 0.75 5.546875 L 4.136719 3.96875 Z M 5.714844 0.582031 " clip-rule="nonzero"/></clipPath><clipPath id="9c928b6739"><rect x="0" width="11" y="0" height="11"/></clipPath><clipPath id="416d1c2662"><path d="M 328.480469 132.730469 L 338.410156 132.730469 L 338.410156 142.664062 L 328.480469 142.664062 Z M 328.480469 132.730469 " clip-rule="nonzero"/></clipPath><clipPath id="7b059a8a41"><path d="M 333.445312 132.730469 L 335.027344 136.117188 L 338.410156 137.699219 L 335.027344 139.277344 L 333.445312 142.664062 L 331.867188 139.277344 L 328.480469 137.699219 L 331.867188 136.117188 Z M 333.445312 132.730469 " clip-rule="nonzero"/></clipPath><clipPath id="7f09caa887"><path d="M 0.480469 0.730469 L 10.410156 0.730469 L 10.410156 10.664062 L 0.480469 10.664062 Z M 0.480469 0.730469 " clip-rule="nonzero"/></clipPath><clipPath id="46a578be1c"><path d="M 5.445312 0.730469 L 7.027344 4.117188 L 10.410156 5.699219 L 7.027344 7.277344 L 5.445312 10.664062 L 3.867188 7.277344 L 0.480469 5.699219 L 3.867188 4.117188 Z M 5.445312 0.730469 " clip-rule="nonzero"/></clipPath><clipPath id="2cb3aeb3e0"><rect x="0" width="11" y="0" height="11"/></clipPath><clipPath id="b98d9e4c9d"><path d="M 389.230469 168.652344 L 399.160156 168.652344 L 399.160156 178.585938 L 389.230469 178.585938 Z M 389.230469 168.652344 " clip-rule="nonzero"/></clipPath><clipPath id="9019a891b1"><path d="M 394.195312 168.652344 L 395.773438 172.039062 L 399.160156 173.617188 L 395.773438 175.199219 L 394.195312 178.585938 L 392.613281 175.199219 L 389.230469 173.617188 L 392.613281 172.039062 Z M 394.195312 168.652344 " clip-rule="nonzero"/></clipPath><clipPath id="ebf3461bfe"><path d="M 0.230469 0.652344 L 10.160156 0.652344 L 10.160156 10.585938 L 0.230469 10.585938 Z M 0.230469 0.652344 " clip-rule="nonzero"/></clipPath><clipPath id="0ac9bf830d"><path d="M 5.195312 0.652344 L 6.773438 4.039062 L 10.160156 5.617188 L 6.773438 7.199219 L 5.195312 10.585938 L 3.613281 7.199219 L 0.230469 5.617188 L 3.613281 4.039062 Z M 5.195312 0.652344 " clip-rule="nonzero"/></clipPath><clipPath id="7f26d84b14"><rect x="0" width="11" y="0" height="11"/></clipPath><clipPath id="7662155a48"><path d="M 396.140625 248.644531 L 406.074219 248.644531 L 406.074219 258.574219 L 396.140625 258.574219 Z M 396.140625 248.644531 " clip-rule="nonzero"/></clipPath><clipPath id="6ac7648be9"><path d="M 401.109375 248.644531 L 402.6875 252.027344 L 406.074219 253.609375 L 402.6875 255.1875 L 401.109375 258.574219 L 399.527344 255.1875 L 396.140625 253.609375 L 399.527344 252.027344 Z M 401.109375 248.644531 " clip-rule="nonzero"/></clipPath><clipPath id="1f82ac38e3"><path d="M 0.140625 0.644531 L 10.074219 0.644531 L 10.074219 10.574219 L 0.140625 10.574219 Z M 0.140625 0.644531 " clip-rule="nonzero"/></clipPath><clipPath id="aa8c906522"><path d="M 5.109375 0.644531 L 6.6875 4.027344 L 10.074219 5.609375 L 6.6875 7.1875 L 5.109375 10.574219 L 3.527344 7.1875 L 0.140625 5.609375 L 3.527344 4.027344 Z M 5.109375 0.644531 " clip-rule="nonzero"/></clipPath><clipPath id="da1214a683"><rect x="0" width="11" y="0" height="11"/></clipPath><clipPath id="c58ff88b6c"><path d="M 561.625 152.339844 L 571.558594 152.339844 L 571.558594 162.273438 L 561.625 162.273438 Z M 561.625 152.339844 " clip-rule="nonzero"/></clipPath><clipPath id="414b69ac91"><path d="M 566.589844 152.339844 L 568.171875 155.726562 L 571.558594 157.304688 L 568.171875 158.886719 L 566.589844 162.273438 L 565.011719 158.886719 L 561.625 157.304688 L 565.011719 155.726562 Z M 566.589844 152.339844 " clip-rule="nonzero"/></clipPath><clipPath id="eb77f4324f"><path d="M 0.625 0.339844 L 10.558594 0.339844 L 10.558594 10.273438 L 0.625 10.273438 Z M 0.625 0.339844 " clip-rule="nonzero"/></clipPath><clipPath id="810281a8d5"><path d="M 5.589844 0.339844 L 7.171875 3.726562 L 10.558594 5.304688 L 7.171875 6.886719 L 5.589844 10.273438 L 4.011719 6.886719 L 0.625 5.304688 L 4.011719 3.726562 Z M 5.589844 0.339844 " clip-rule="nonzero"/></clipPath><clipPath id="0bbd1d8b11"><rect x="0" width="11" y="0" height="11"/></clipPath><clipPath id="afc3c797b8"><path d="M 475.941406 126.941406 L 485.871094 126.941406 L 485.871094 136.875 L 475.941406 136.875 Z M 475.941406 126.941406 " clip-rule="nonzero"/></clipPath><clipPath id="25839398c4"><path d="M 480.90625 126.941406 L 482.488281 130.328125 L 485.871094 131.910156 L 482.488281 133.488281 L 480.90625 136.875 L 479.328125 133.488281 L 475.941406 131.910156 L 479.328125 130.328125 Z M 480.90625 126.941406 " clip-rule="nonzero"/></clipPath><clipPath id="86699cf279"><path d="M 0.941406 0.941406 L 10.871094 0.941406 L 10.871094 10.875 L 0.941406 10.875 Z M 0.941406 0.941406 " clip-rule="nonzero"/></clipPath><clipPath id="225bcb6461"><path d="M 5.90625 0.941406 L 7.488281 4.328125 L 10.871094 5.910156 L 7.488281 7.488281 L 5.90625 10.875 L 4.328125 7.488281 L 0.941406 5.910156 L 4.328125 4.328125 Z M 5.90625 0.941406 " clip-rule="nonzero"/></clipPath><clipPath id="6fb3a1946b"><rect x="0" width="11" y="0" height="11"/></clipPath><clipPath id="ef0dc9466c"><path d="M 619.355469 251.273438 L 629.289062 251.273438 L 629.289062 261.207031 L 619.355469 261.207031 Z M 619.355469 251.273438 " clip-rule="nonzero"/></clipPath><clipPath id="e3f54ed046"><path d="M 624.320312 251.273438 L 625.902344 254.660156 L 629.289062 256.242188 L 625.902344 257.820312 L 624.320312 261.207031 L 622.742188 257.820312 L 619.355469 256.242188 L 622.742188 254.660156 Z M 624.320312 251.273438 " clip-rule="nonzero"/></clipPath><clipPath id="a5bca6dca1"><path d="M 0.355469 0.273438 L 10.289062 0.273438 L 10.289062 10.207031 L 0.355469 10.207031 Z M 0.355469 0.273438 " clip-rule="nonzero"/></clipPath><clipPath id="2a5a04f3e6"><path d="M 5.320312 0.273438 L 6.902344 3.660156 L 10.289062 5.242188 L 6.902344 6.820312 L 5.320312 10.207031 L 3.742188 6.820312 L 0.355469 5.242188 L 3.742188 3.660156 Z M 5.320312 0.273438 " clip-rule="nonzero"/></clipPath><clipPath id="69a8c14a59"><rect x="0" width="11" y="0" height="11"/></clipPath><clipPath id="c348c8cded"><path d="M 522.9375 252.832031 L 532.871094 252.832031 L 532.871094 262.765625 L 522.9375 262.765625 Z M 522.9375 252.832031 " clip-rule="nonzero"/></clipPath><clipPath id="8a477ce183"><path d="M 527.90625 252.832031 L 529.484375 256.21875 L 532.871094 257.800781 L 529.484375 259.378906 L 527.90625 262.765625 L 526.324219 259.378906 L 522.9375 257.800781 L 526.324219 256.21875 Z M 527.90625 252.832031 " clip-rule="nonzero"/></clipPath><clipPath id="5b8664a3fd"><path d="M 0.9375 0.832031 L 10.871094 0.832031 L 10.871094 10.765625 L 0.9375 10.765625 Z M 0.9375 0.832031 " clip-rule="nonzero"/></clipPath><clipPath id="8be1ef5c89"><path d="M 5.90625 0.832031 L 7.484375 4.21875 L 10.871094 5.800781 L 7.484375 7.378906 L 5.90625 10.765625 L 4.324219 7.378906 L 0.9375 5.800781 L 4.324219 4.21875 Z M 5.90625 0.832031 " clip-rule="nonzero"/></clipPath><clipPath id="4bfa0e02cf"><rect x="0" width="11" y="0" height="11"/></clipPath><clipPath id="e216988f9d"><path d="M 485.871094 238.996094 L 495.804688 238.996094 L 495.804688 248.925781 L 485.871094 248.925781 Z M 485.871094 238.996094 " clip-rule="nonzero"/></clipPath><clipPath id="7fbfa47c82"><path d="M 490.839844 238.996094 L 492.417969 242.378906 L 495.804688 243.960938 L 492.417969 245.539062 L 490.839844 248.925781 L 489.257812 245.539062 L 485.871094 243.960938 L 489.257812 242.378906 Z M 490.839844 238.996094 " clip-rule="nonzero"/></clipPath><clipPath id="fec311c161"><path d="M 0.871094 0.996094 L 10.804688 0.996094 L 10.804688 10.925781 L 0.871094 10.925781 Z M 0.871094 0.996094 " clip-rule="nonzero"/></clipPath><clipPath id="d6ac527fd6"><path d="M 5.839844 0.996094 L 7.417969 4.378906 L 10.804688 5.960938 L 7.417969 7.539062 L 5.839844 10.925781 L 4.257812 7.539062 L 0.871094 5.960938 L 4.257812 4.378906 Z M 5.839844 0.996094 " clip-rule="nonzero"/></clipPath><clipPath id="4c0864c9f1"><rect x="0" width="11" y="0" height="11"/></clipPath><clipPath id="bb89103276"><path d="M 490.839844 152.339844 L 500.769531 152.339844 L 500.769531 162.273438 L 490.839844 162.273438 Z M 490.839844 152.339844 " clip-rule="nonzero"/></clipPath><clipPath id="1f84aa29bf"><path d="M 495.804688 152.339844 L 497.382812 155.726562 L 500.769531 157.304688 L 497.382812 158.886719 L 495.804688 162.273438 L 494.222656 158.886719 L 490.839844 157.304688 L 494.222656 155.726562 Z M 495.804688 152.339844 " clip-rule="nonzero"/></clipPath><clipPath id="72b6dde0a2"><path d="M 0.839844 0.339844 L 10.769531 0.339844 L 10.769531 10.273438 L 0.839844 10.273438 Z M 0.839844 0.339844 " clip-rule="nonzero"/></clipPath><clipPath id="53d800b90f"><path d="M 5.804688 0.339844 L 7.382812 3.726562 L 10.769531 5.304688 L 7.382812 6.886719 L 5.804688 10.273438 L 4.222656 6.886719 L 0.839844 5.304688 L 4.222656 3.726562 Z M 5.804688 0.339844 " clip-rule="nonzero"/></clipPath><clipPath id="27541780f7"><rect x="0" width="11" y="0" height="11"/></clipPath></defs><g transform="matrix(1, 0, 0, 1, 197, 138)"><g clip-path="url(#a02ef7212e)"><g fill="#000000" fill-opacity="1"><g transform="translate(0.253775, 92.239837)"><g><path d="M 38.625 -4.40625 C 38.300781 -3.582031 37.671875 -2.988281 36.734375 -2.625 C 35.796875 -2.257812 34.816406 -1.953125 33.796875 -1.703125 C 32.785156 -1.460938 31.953125 -1.097656 31.296875 -0.609375 C 28.273438 -0.609375 25.15625 -0.460938 21.9375 -0.171875 C 18.71875 0.109375 15.597656 0.00390625 12.578125 -0.484375 C 9.566406 -0.972656 6.84375 -2.359375 4.40625 -4.640625 C 4.15625 -7.898438 4.128906 -11.179688 4.328125 -14.484375 C 4.535156 -17.785156 4.316406 -20.984375 3.671875 -24.078125 C 4.484375 -31.410156 4.910156 -38.703125 4.953125 -45.953125 C 4.992188 -53.210938 5.015625 -60.488281 5.015625 -67.78125 C 5.015625 -75.082031 5.335938 -82.359375 5.984375 -89.609375 C 7.210938 -89.367188 8.414062 -89.101562 9.59375 -88.8125 C 10.78125 -88.53125 11.984375 -88.222656 13.203125 -87.890625 C 13.859375 -81.535156 14.144531 -75.160156 14.0625 -68.765625 C 13.976562 -62.367188 14.019531 -55.992188 14.1875 -49.640625 C 15 -44.910156 15.320312 -40.160156 15.15625 -35.390625 C 15 -30.617188 14.753906 -25.890625 14.421875 -21.203125 C 14.097656 -16.523438 14.019531 -11.820312 14.1875 -7.09375 C 15.976562 -5.707031 17.929688 -5.015625 20.046875 -5.015625 C 22.171875 -5.015625 24.332031 -5.257812 26.53125 -5.75 C 28.726562 -6.238281 30.863281 -6.484375 32.9375 -6.484375 C 35.019531 -6.484375 36.914062 -5.789062 38.625 -4.40625 Z M 38.625 -4.40625 "/></g></g></g><g fill="#000000" fill-opacity="1"><g transform="translate(42.546562, 92.239837)"><g><path d="M 41.203125 -32.390625 C 42.015625 -30.847656 42.238281 -29.117188 41.875 -27.203125 C 41.507812 -25.285156 40.671875 -23.796875 39.359375 -22.734375 C 38.054688 -21.679688 36.390625 -21.679688 34.359375 -22.734375 C 32.398438 -23.628906 30.335938 -24.078125 28.171875 -24.078125 C 26.015625 -24.078125 23.835938 -23.992188 21.640625 -23.828125 C 19.441406 -23.671875 17.28125 -23.675781 15.15625 -23.84375 C 15.15625 -21.3125 15.132812 -18.722656 15.09375 -16.078125 C 15.050781 -13.429688 15.925781 -11.046875 17.71875 -8.921875 C 18.78125 -6.804688 20.429688 -5.398438 22.671875 -4.703125 C 24.921875 -4.015625 27.101562 -3.628906 29.21875 -3.546875 C 30.4375 -4.117188 31.578125 -4.929688 32.640625 -5.984375 C 33.703125 -7.046875 34.800781 -7.984375 35.9375 -8.796875 C 37.082031 -9.617188 38.390625 -9.945312 39.859375 -9.78125 C 39.367188 -8.070312 38.507812 -6.484375 37.28125 -5.015625 C 36.0625 -3.546875 34.675781 -2.363281 33.125 -1.46875 C 30.6875 -1.144531 28.179688 -0.773438 25.609375 -0.359375 C 23.046875 0.046875 20.5 0.128906 17.96875 -0.109375 C 15.445312 -0.359375 13.082031 -1.300781 10.875 -2.9375 C 7.78125 -5.707031 5.660156 -9.148438 4.515625 -13.265625 C 3.378906 -17.378906 3.503906 -21.394531 4.890625 -25.3125 C 5.546875 -29.300781 7.035156 -32.90625 9.359375 -36.125 C 11.679688 -39.34375 14.265625 -42.253906 17.109375 -44.859375 C 19.960938 -45.023438 22.914062 -45.207031 25.96875 -45.40625 C 29.03125 -45.613281 31.863281 -44.90625 34.46875 -43.28125 C 36.675781 -42.300781 38.207031 -40.769531 39.0625 -38.6875 C 39.914062 -36.613281 40.628906 -34.515625 41.203125 -32.390625 Z M 31.546875 -35.9375 C 31.210938 -36.914062 30.84375 -37.972656 30.4375 -39.109375 C 30.03125 -40.253906 29.421875 -41.132812 28.609375 -41.75 C 27.796875 -42.363281 26.613281 -42.222656 25.0625 -41.328125 C 23.84375 -40.015625 22.554688 -38.664062 21.203125 -37.28125 C 19.859375 -35.894531 18.757812 -34.425781 17.90625 -32.875 C 17.050781 -31.332031 16.707031 -29.539062 16.875 -27.5 C 19.394531 -27.34375 21.914062 -27.300781 24.4375 -27.375 C 26.96875 -27.457031 29.414062 -27.828125 31.78125 -28.484375 C 31.945312 -29.703125 31.988281 -30.941406 31.90625 -32.203125 C 31.820312 -33.472656 31.703125 -34.71875 31.546875 -35.9375 Z M 31.546875 -35.9375 "/></g></g></g><g fill="#000000" fill-opacity="1"><g transform="translate(84.594488, 92.239837)"><g><path d="M 39.125 -24.328125 C 38.632812 -20.171875 38.53125 -15.953125 38.8125 -11.671875 C 39.101562 -7.390625 39.367188 -3.09375 39.609375 1.21875 C 39.847656 5.539062 39.644531 9.78125 39 13.9375 C 38.59375 15.894531 37.898438 17.789062 36.921875 19.625 C 35.941406 21.457031 34.71875 23.066406 33.25 24.453125 C 30.882812 25.515625 28.4375 26.429688 25.90625 27.203125 C 23.382812 27.972656 20.820312 28.035156 18.21875 27.390625 C 17.070312 27.390625 16.03125 27.101562 15.09375 26.53125 C 14.15625 25.957031 13.21875 25.34375 12.28125 24.6875 C 11.34375 24.039062 10.304688 23.675781 9.171875 23.59375 C 7.617188 22.289062 6.941406 20.597656 7.140625 18.515625 C 7.347656 16.441406 7.695312 14.585938 8.1875 12.953125 C 10.382812 12.710938 12.546875 12.710938 14.671875 12.953125 C 14.992188 13.359375 15.253906 13.96875 15.453125 14.78125 C 15.660156 15.601562 15.988281 16.421875 16.4375 17.234375 C 16.882812 18.046875 17.640625 18.65625 18.703125 19.0625 C 19.765625 19.476562 21.351562 19.484375 23.46875 19.078125 C 25.34375 18.335938 26.644531 17.191406 27.375 15.640625 C 28.113281 14.097656 28.484375 12.328125 28.484375 10.328125 C 28.484375 8.328125 28.335938 6.304688 28.046875 4.265625 C 27.765625 2.234375 27.582031 0.320312 27.5 -1.46875 C 25.0625 -1.382812 22.414062 -1.503906 19.5625 -1.828125 C 16.707031 -2.160156 14.035156 -2.914062 11.546875 -4.09375 C 9.066406 -5.28125 7.132812 -7.09375 5.75 -9.53125 C 4.601562 -12.144531 3.945312 -14.875 3.78125 -17.71875 C 3.625 -20.570312 3.628906 -23.425781 3.796875 -26.28125 C 4.441406 -29.375 5.578125 -32.304688 7.203125 -35.078125 C 8.835938 -37.859375 10.59375 -40.507812 12.46875 -43.03125 C 14.019531 -44.5 15.734375 -45.171875 17.609375 -45.046875 C 19.484375 -44.921875 21.375 -44.410156 23.28125 -43.515625 C 25.195312 -42.617188 26.890625 -41.679688 28.359375 -40.703125 C 29.015625 -41.359375 29.300781 -42.175781 29.21875 -43.15625 C 29.132812 -44.132812 29.09375 -45.09375 29.09375 -46.03125 C 29.09375 -46.96875 29.5 -47.679688 30.3125 -48.171875 C 31.625 -48.085938 32.890625 -48.144531 34.109375 -48.34375 C 35.328125 -48.550781 36.507812 -48.816406 37.65625 -49.140625 C 37.8125 -44.984375 38.050781 -40.847656 38.375 -36.734375 C 38.707031 -32.617188 38.957031 -28.484375 39.125 -24.328125 Z M 28.359375 -36.3125 C 28.035156 -36.800781 27.382812 -37.367188 26.40625 -38.015625 C 25.425781 -38.671875 24.285156 -39.160156 22.984375 -39.484375 C 21.679688 -39.804688 20.378906 -39.644531 19.078125 -39 C 16.546875 -36.632812 14.75 -33.820312 13.6875 -30.5625 C 12.632812 -27.300781 12.125 -23.914062 12.15625 -20.40625 C 12.195312 -16.90625 12.585938 -13.523438 13.328125 -10.265625 C 13.898438 -9.367188 14.835938 -8.472656 16.140625 -7.578125 C 17.441406 -6.679688 18.863281 -5.988281 20.40625 -5.5 C 21.957031 -5.007812 23.382812 -4.945312 24.6875 -5.3125 C 26 -5.6875 26.9375 -6.726562 27.5 -8.4375 C 28.476562 -11.78125 28.96875 -14.894531 28.96875 -17.78125 C 28.96875 -20.675781 28.84375 -23.628906 28.59375 -26.640625 C 28.351562 -29.660156 28.273438 -32.882812 28.359375 -36.3125 Z M 28.359375 -36.3125 "/></g></g></g><g fill="#000000" fill-opacity="1"><g transform="translate(124.31999, 92.239837)"><g><path d="M 41.203125 -32.390625 C 42.015625 -30.847656 42.238281 -29.117188 41.875 -27.203125 C 41.507812 -25.285156 40.671875 -23.796875 39.359375 -22.734375 C 38.054688 -21.679688 36.390625 -21.679688 34.359375 -22.734375 C 32.398438 -23.628906 30.335938 -24.078125 28.171875 -24.078125 C 26.015625 -24.078125 23.835938 -23.992188 21.640625 -23.828125 C 19.441406 -23.671875 17.28125 -23.675781 15.15625 -23.84375 C 15.15625 -21.3125 15.132812 -18.722656 15.09375 -16.078125 C 15.050781 -13.429688 15.925781 -11.046875 17.71875 -8.921875 C 18.78125 -6.804688 20.429688 -5.398438 22.671875 -4.703125 C 24.921875 -4.015625 27.101562 -3.628906 29.21875 -3.546875 C 30.4375 -4.117188 31.578125 -4.929688 32.640625 -5.984375 C 33.703125 -7.046875 34.800781 -7.984375 35.9375 -8.796875 C 37.082031 -9.617188 38.390625 -9.945312 39.859375 -9.78125 C 39.367188 -8.070312 38.507812 -6.484375 37.28125 -5.015625 C 36.0625 -3.546875 34.675781 -2.363281 33.125 -1.46875 C 30.6875 -1.144531 28.179688 -0.773438 25.609375 -0.359375 C 23.046875 0.046875 20.5 0.128906 17.96875 -0.109375 C 15.445312 -0.359375 13.082031 -1.300781 10.875 -2.9375 C 7.78125 -5.707031 5.660156 -9.148438 4.515625 -13.265625 C 3.378906 -17.378906 3.503906 -21.394531 4.890625 -25.3125 C 5.546875 -29.300781 7.035156 -32.90625 9.359375 -36.125 C 11.679688 -39.34375 14.265625 -42.253906 17.109375 -44.859375 C 19.960938 -45.023438 22.914062 -45.207031 25.96875 -45.40625 C 29.03125 -45.613281 31.863281 -44.90625 34.46875 -43.28125 C 36.675781 -42.300781 38.207031 -40.769531 39.0625 -38.6875 C 39.914062 -36.613281 40.628906 -34.515625 41.203125 -32.390625 Z M 31.546875 -35.9375 C 31.210938 -36.914062 30.84375 -37.972656 30.4375 -39.109375 C 30.03125 -40.253906 29.421875 -41.132812 28.609375 -41.75 C 27.796875 -42.363281 26.613281 -42.222656 25.0625 -41.328125 C 23.84375 -40.015625 22.554688 -38.664062 21.203125 -37.28125 C 19.859375 -35.894531 18.757812 -34.425781 17.90625 -32.875 C 17.050781 -31.332031 16.707031 -29.539062 16.875 -27.5 C 19.394531 -27.34375 21.914062 -27.300781 24.4375 -27.375 C 26.96875 -27.457031 29.414062 -27.828125 31.78125 -28.484375 C 31.945312 -29.703125 31.988281 -30.941406 31.90625 -32.203125 C 31.820312 -33.472656 31.703125 -34.71875 31.546875 -35.9375 Z M 31.546875 -35.9375 "/></g></g></g><g fill="#000000" fill-opacity="1"><g transform="translate(170.035306, 92.239837)"><g><path d="M 31.421875 -0.734375 C 30.679688 -2.035156 30.046875 -3.359375 29.515625 -4.703125 C 28.992188 -6.046875 28.8125 -7.453125 28.96875 -8.921875 C 29.707031 -13.648438 30.097656 -18.394531 30.140625 -23.15625 C 30.179688 -27.925781 30.035156 -32.675781 29.703125 -37.40625 C 29.546875 -38.0625 29.035156 -38.691406 28.171875 -39.296875 C 27.316406 -39.910156 26.566406 -39.894531 25.921875 -39.25 C 24.285156 -38.101562 22.691406 -36.894531 21.140625 -35.625 C 19.597656 -34.363281 18.582031 -32.71875 18.09375 -30.6875 C 17.4375 -29.539062 16.96875 -27.601562 16.6875 -24.875 C 16.40625 -22.144531 16.242188 -19.148438 16.203125 -15.890625 C 16.160156 -12.628906 16.160156 -9.59375 16.203125 -6.78125 C 16.242188 -3.96875 16.265625 -1.953125 16.265625 -0.734375 C 15.117188 0.078125 13.851562 0.441406 12.46875 0.359375 C 11.082031 0.285156 9.71875 0.046875 8.375 -0.359375 C 7.03125 -0.773438 5.707031 -0.984375 4.40625 -0.984375 C 3.75 -4.722656 3.5 -8.425781 3.65625 -12.09375 C 3.820312 -15.769531 4.046875 -19.460938 4.328125 -23.171875 C 4.617188 -26.878906 4.601562 -30.566406 4.28125 -34.234375 C 4.6875 -36.515625 4.890625 -38.816406 4.890625 -41.140625 C 4.890625 -43.460938 5.253906 -45.765625 5.984375 -48.046875 C 7.210938 -47.554688 8.394531 -47.066406 9.53125 -46.578125 C 10.675781 -46.085938 11.816406 -45.554688 12.953125 -44.984375 C 13.117188 -43.679688 13.203125 -42.398438 13.203125 -41.140625 C 13.203125 -39.878906 13.285156 -38.59375 13.453125 -37.28125 C 14.992188 -38.59375 16.5 -39.941406 17.96875 -41.328125 C 19.4375 -42.710938 21.109375 -43.6875 22.984375 -44.25 C 25.097656 -44.90625 27.414062 -45.171875 29.9375 -45.046875 C 32.46875 -44.921875 34.507812 -43.84375 36.0625 -41.8125 C 36.46875 -40.664062 36.832031 -39.539062 37.15625 -38.4375 C 37.488281 -37.34375 37.816406 -36.222656 38.140625 -35.078125 C 38.222656 -29.210938 38.34375 -23.328125 38.5 -17.421875 C 38.664062 -11.515625 38.546875 -5.625 38.140625 0.25 C 37.734375 0.320312 37.304688 0.335938 36.859375 0.296875 C 36.410156 0.265625 35.984375 0.207031 35.578125 0.125 C 34.835938 -0.0390625 34.117188 -0.179688 33.421875 -0.296875 C 32.734375 -0.421875 32.066406 -0.566406 31.421875 -0.734375 Z M 31.421875 -0.734375 "/></g></g></g><g fill="#000000" fill-opacity="1"><g transform="translate(212.328093, 92.239837)"><g><path d="M 40.09375 -6.359375 C 40.34375 -4.972656 40.992188 -3.890625 42.046875 -3.109375 C 43.109375 -2.335938 44.046875 -1.769531 44.859375 -1.40625 C 45.679688 -1.039062 45.804688 -0.734375 45.234375 -0.484375 C 44.085938 -0.648438 42.78125 -0.609375 41.3125 -0.359375 C 39.851562 -0.117188 38.445312 0 37.09375 0 C 35.75 0 34.59375 -0.40625 33.625 -1.21875 C 32.726562 -1.707031 31.929688 -2.03125 31.234375 -2.1875 C 30.546875 -2.351562 29.628906 -2.234375 28.484375 -1.828125 C 26.035156 -1.503906 23.40625 -1.320312 20.59375 -1.28125 C 17.78125 -1.238281 15.128906 -1.664062 12.640625 -2.5625 C 10.160156 -3.457031 8.1875 -5.210938 6.71875 -7.828125 C 5.25 -9.941406 4.351562 -12.160156 4.03125 -14.484375 C 3.707031 -16.804688 3.664062 -19.171875 3.90625 -21.578125 C 4.15625 -23.984375 4.320312 -26.328125 4.40625 -28.609375 C 5.539062 -31.703125 6.78125 -34.859375 8.125 -38.078125 C 9.46875 -41.296875 11.445312 -44.046875 14.0625 -46.328125 C 15.769531 -47.390625 17.5 -47.859375 19.25 -47.734375 C 21 -47.617188 22.75 -47.210938 24.5 -46.515625 C 26.257812 -45.828125 27.953125 -45.195312 29.578125 -44.625 C 30.234375 -49.351562 30.5625 -54.097656 30.5625 -58.859375 C 30.5625 -63.628906 30.617188 -68.414062 30.734375 -73.21875 C 30.859375 -78.03125 31.410156 -82.757812 32.390625 -87.40625 C 32.390625 -87.40625 32.570312 -87.628906 32.9375 -88.078125 C 33.3125 -88.523438 33.820312 -88.910156 34.46875 -89.234375 C 35.125 -89.566406 35.816406 -89.488281 36.546875 -89 C 36.796875 -88.832031 37.019531 -88.707031 37.21875 -88.625 C 37.425781 -88.550781 37.570312 -88.472656 37.65625 -88.390625 C 38.226562 -87.492188 38.753906 -86.632812 39.234375 -85.8125 C 39.722656 -85 39.890625 -84.0625 39.734375 -83 C 39.566406 -78.84375 39.300781 -74.6875 38.9375 -70.53125 C 38.570312 -66.375 38.429688 -62.179688 38.515625 -57.953125 C 39.003906 -52.242188 39.144531 -46.515625 38.9375 -40.765625 C 38.726562 -35.023438 38.625 -29.28125 38.625 -23.53125 C 38.625 -17.789062 39.113281 -12.066406 40.09375 -6.359375 Z M 28.734375 -10.640625 C 28.398438 -14.953125 28.5625 -19.1875 29.21875 -23.34375 C 29.875 -27.5 29.957031 -31.695312 29.46875 -35.9375 C 28.976562 -36.34375 28.382812 -36.972656 27.6875 -37.828125 C 27 -38.691406 26.285156 -39.328125 25.546875 -39.734375 C 24.816406 -40.140625 24.125 -39.851562 23.46875 -38.875 C 21.507812 -36.507812 19.773438 -33.859375 18.265625 -30.921875 C 16.765625 -27.992188 16.257812 -24.898438 16.75 -21.640625 C 16.582031 -19.679688 16.5625 -17.5625 16.6875 -15.28125 C 16.8125 -13 17.378906 -10.941406 18.390625 -9.109375 C 19.410156 -7.273438 21.101562 -6.03125 23.46875 -5.375 C 24.769531 -5.21875 26.050781 -5.707031 27.3125 -6.84375 C 28.582031 -7.988281 29.054688 -9.253906 28.734375 -10.640625 Z M 28.734375 -10.640625 "/></g></g></g><g fill="#000000" fill-opacity="1"><g transform="translate(261.588198, 92.239837)"><g><path d="M 38.625 -4.40625 C 38.300781 -3.582031 37.671875 -2.988281 36.734375 -2.625 C 35.796875 -2.257812 34.816406 -1.953125 33.796875 -1.703125 C 32.785156 -1.460938 31.953125 -1.097656 31.296875 -0.609375 C 28.273438 -0.609375 25.15625 -0.460938 21.9375 -0.171875 C 18.71875 0.109375 15.597656 0.00390625 12.578125 -0.484375 C 9.566406 -0.972656 6.84375 -2.359375 4.40625 -4.640625 C 4.15625 -7.898438 4.128906 -11.179688 4.328125 -14.484375 C 4.535156 -17.785156 4.316406 -20.984375 3.671875 -24.078125 C 4.484375 -31.410156 4.910156 -38.703125 4.953125 -45.953125 C 4.992188 -53.210938 5.015625 -60.488281 5.015625 -67.78125 C 5.015625 -75.082031 5.335938 -82.359375 5.984375 -89.609375 C 7.210938 -89.367188 8.414062 -89.101562 9.59375 -88.8125 C 10.78125 -88.53125 11.984375 -88.222656 13.203125 -87.890625 C 13.859375 -81.535156 14.144531 -75.160156 14.0625 -68.765625 C 13.976562 -62.367188 14.019531 -55.992188 14.1875 -49.640625 C 15 -44.910156 15.320312 -40.160156 15.15625 -35.390625 C 15 -30.617188 14.753906 -25.890625 14.421875 -21.203125 C 14.097656 -16.523438 14.019531 -11.820312 14.1875 -7.09375 C 15.976562 -5.707031 17.929688 -5.015625 20.046875 -5.015625 C 22.171875 -5.015625 24.332031 -5.257812 26.53125 -5.75 C 28.726562 -6.238281 30.863281 -6.484375 32.9375 -6.484375 C 35.019531 -6.484375 36.914062 -5.789062 38.625 -4.40625 Z M 38.625 -4.40625 "/></g></g></g><g fill="#000000" fill-opacity="1"><g transform="translate(303.880985, 92.239837)"><g><path d="M 36.1875 -24.078125 C 36.351562 -21.472656 36.046875 -18.90625 35.265625 -16.375 C 34.492188 -13.851562 33.703125 -11.367188 32.890625 -8.921875 C 32.066406 -7.210938 31.066406 -5.519531 29.890625 -3.84375 C 28.710938 -2.175781 27.101562 -1.257812 25.0625 -1.09375 L 15.28125 0 C 12.914062 -0.164062 10.859375 -0.957031 9.109375 -2.375 C 7.359375 -3.800781 6.015625 -5.613281 5.078125 -7.8125 C 4.140625 -10.019531 3.671875 -12.222656 3.671875 -14.421875 C 4.316406 -17.679688 4.800781 -20.960938 5.125 -24.265625 C 5.457031 -27.566406 6.070312 -30.804688 6.96875 -33.984375 C 8.351562 -34.878906 9.410156 -36.117188 10.140625 -37.703125 C 10.878906 -39.296875 11.695312 -40.804688 12.59375 -42.234375 C 13.488281 -43.660156 14.832031 -44.535156 16.625 -44.859375 C 17.769531 -45.429688 18.582031 -45.695312 19.0625 -45.65625 C 19.550781 -45.613281 20.101562 -45.550781 20.71875 -45.46875 C 21.332031 -45.394531 22.25 -45.4375 23.46875 -45.59375 C 24.363281 -45.03125 25.363281 -44.601562 26.46875 -44.3125 C 27.570312 -44.03125 28.585938 -43.664062 29.515625 -43.21875 C 30.453125 -42.769531 31.128906 -41.972656 31.546875 -40.828125 C 32.765625 -39.203125 33.515625 -37.429688 33.796875 -35.515625 C 34.085938 -33.597656 34.332031 -31.660156 34.53125 -29.703125 C 34.738281 -27.742188 35.289062 -25.867188 36.1875 -24.078125 Z M 27.015625 -28.234375 C 26.691406 -29.210938 26.363281 -30.332031 26.03125 -31.59375 C 25.707031 -32.863281 25.238281 -34.003906 24.625 -35.015625 C 24.019531 -36.035156 23.101562 -36.585938 21.875 -36.671875 C 20.820312 -33.984375 19.863281 -31.296875 19 -28.609375 C 18.144531 -25.921875 17.640625 -23.109375 17.484375 -20.171875 C 17.398438 -18.535156 17.191406 -16.675781 16.859375 -14.59375 C 16.535156 -12.519531 16.492188 -10.546875 16.734375 -8.671875 C 16.984375 -6.804688 17.84375 -5.21875 19.3125 -3.90625 C 19.882812 -3.832031 20.492188 -3.753906 21.140625 -3.671875 C 21.796875 -3.585938 22.328125 -3.789062 22.734375 -4.28125 C 25.347656 -7.695312 26.878906 -11.503906 27.328125 -15.703125 C 27.773438 -19.898438 27.671875 -24.078125 27.015625 -28.234375 Z M 27.015625 -28.234375 "/></g></g></g><g fill="#000000" fill-opacity="1"><g transform="translate(343.851326, 92.239837)"><g><path d="M 33.859375 -43.15625 C 34.191406 -42.175781 33.90625 -41.460938 33 -41.015625 C 32.101562 -40.566406 31.066406 -40.28125 29.890625 -40.15625 C 28.710938 -40.03125 27.914062 -39.929688 27.5 -39.859375 C 25.144531 -38.140625 23.414062 -36.035156 22.3125 -33.546875 C 21.207031 -31.066406 20.410156 -28.441406 19.921875 -25.671875 C 19.429688 -22.898438 18.78125 -20.210938 17.96875 -17.609375 C 17.15625 -14.835938 16.953125 -12.082031 17.359375 -9.34375 C 17.765625 -6.613281 17.96875 -3.828125 17.96875 -0.984375 C 16.90625 -0.00390625 15.722656 0.28125 14.421875 -0.125 C 13.117188 -0.53125 11.796875 -1.035156 10.453125 -1.640625 C 9.109375 -2.253906 7.785156 -2.359375 6.484375 -1.953125 C 5.992188 -2.359375 5.6875 -2.867188 5.5625 -3.484375 C 5.4375 -4.097656 5.296875 -4.6875 5.140625 -5.25 C 4.648438 -10.550781 4.566406 -15.804688 4.890625 -21.015625 C 5.210938 -26.234375 4.882812 -31.453125 3.90625 -36.671875 C 3.75 -38.304688 3.726562 -39.957031 3.84375 -41.625 C 3.96875 -43.289062 4.359375 -44.898438 5.015625 -46.453125 C 5.503906 -47.347656 6.15625 -47.835938 6.96875 -47.921875 C 7.78125 -48.003906 8.65625 -47.941406 9.59375 -47.734375 C 10.53125 -47.535156 11.367188 -47.4375 12.109375 -47.4375 C 13.566406 -46.289062 14.378906 -44.878906 14.546875 -43.203125 C 14.710938 -41.535156 14.835938 -39.890625 14.921875 -38.265625 C 16.304688 -39.816406 17.832031 -41.179688 19.5 -42.359375 C 21.164062 -43.535156 23.019531 -44.332031 25.0625 -44.75 C 26.039062 -44.75 27.078125 -44.828125 28.171875 -44.984375 C 29.273438 -45.148438 30.351562 -45.148438 31.40625 -44.984375 C 32.46875 -44.828125 33.285156 -44.21875 33.859375 -43.15625 Z M 33.859375 -43.15625 "/></g></g></g><g fill="#000000" fill-opacity="1"><g transform="translate(370.008074, 92.239837)"><g><path d="M 41.203125 -32.390625 C 42.015625 -30.847656 42.238281 -29.117188 41.875 -27.203125 C 41.507812 -25.285156 40.671875 -23.796875 39.359375 -22.734375 C 38.054688 -21.679688 36.390625 -21.679688 34.359375 -22.734375 C 32.398438 -23.628906 30.335938 -24.078125 28.171875 -24.078125 C 26.015625 -24.078125 23.835938 -23.992188 21.640625 -23.828125 C 19.441406 -23.671875 17.28125 -23.675781 15.15625 -23.84375 C 15.15625 -21.3125 15.132812 -18.722656 15.09375 -16.078125 C 15.050781 -13.429688 15.925781 -11.046875 17.71875 -8.921875 C 18.78125 -6.804688 20.429688 -5.398438 22.671875 -4.703125 C 24.921875 -4.015625 27.101562 -3.628906 29.21875 -3.546875 C 30.4375 -4.117188 31.578125 -4.929688 32.640625 -5.984375 C 33.703125 -7.046875 34.800781 -7.984375 35.9375 -8.796875 C 37.082031 -9.617188 38.390625 -9.945312 39.859375 -9.78125 C 39.367188 -8.070312 38.507812 -6.484375 37.28125 -5.015625 C 36.0625 -3.546875 34.675781 -2.363281 33.125 -1.46875 C 30.6875 -1.144531 28.179688 -0.773438 25.609375 -0.359375 C 23.046875 0.046875 20.5 0.128906 17.96875 -0.109375 C 15.445312 -0.359375 13.082031 -1.300781 10.875 -2.9375 C 7.78125 -5.707031 5.660156 -9.148438 4.515625 -13.265625 C 3.378906 -17.378906 3.503906 -21.394531 4.890625 -25.3125 C 5.546875 -29.300781 7.035156 -32.90625 9.359375 -36.125 C 11.679688 -39.34375 14.265625 -42.253906 17.109375 -44.859375 C 19.960938 -45.023438 22.914062 -45.207031 25.96875 -45.40625 C 29.03125 -45.613281 31.863281 -44.90625 34.46875 -43.28125 C 36.675781 -42.300781 38.207031 -40.769531 39.0625 -38.6875 C 39.914062 -36.613281 40.628906 -34.515625 41.203125 -32.390625 Z M 31.546875 -35.9375 C 31.210938 -36.914062 30.84375 -37.972656 30.4375 -39.109375 C 30.03125 -40.253906 29.421875 -41.132812 28.609375 -41.75 C 27.796875 -42.363281 26.613281 -42.222656 25.0625 -41.328125 C 23.84375 -40.015625 22.554688 -38.664062 21.203125 -37.28125 C 19.859375 -35.894531 18.757812 -34.425781 17.90625 -32.875 C 17.050781 -31.332031 16.707031 -29.539062 16.875 -27.5 C 19.394531 -27.34375 21.914062 -27.300781 24.4375 -27.375 C 26.96875 -27.457031 29.414062 -27.828125 31.78125 -28.484375 C 31.945312 -29.703125 31.988281 -30.941406 31.90625 -32.203125 C 31.820312 -33.472656 31.703125 -34.71875 31.546875 -35.9375 Z M 31.546875 -35.9375 "/></g></g></g></g></g><path stroke-linecap="butt" transform="matrix(0.75, 0, 0, 0.75, 371.167281, 305.974727)" fill="none" stroke-linejoin="miter" d="M 5.125917 5.476406 C 31.782169 30.413908 58.43842 30.413908 85.094672 5.476406 " stroke="#000000" stroke-width="15" stroke-opacity="1" stroke-miterlimit="4"/><path stroke-linecap="butt" transform="matrix(0.749291, -0.0326062, 0.0326062, 0.749291, 185.755514, 314.370037)" fill="none" stroke-linejoin="miter" d="M 0.00000194687 7.498082 L 257.331869 7.498079 " stroke="#000000" stroke-width="15" stroke-opacity="1" stroke-miterlimit="4"/><path stroke-linecap="butt" transform="matrix(0.749491, 0.0276235, -0.0276235, 0.749491, 431.204717, 305.978154)" fill="none" stroke-linejoin="miter" d="M -0.00201091 7.497831 L 273.975669 7.500612 " stroke="#000000" stroke-width="15" stroke-opacity="1" stroke-miterlimit="4"/><path stroke-linecap="butt" transform="matrix(0, -0.75, 0.75, 0, 202.324626, 308.687764)" fill="none" stroke-linejoin="miter" d="M 0.000351639 1.499457 L 28.745145 1.499457 " stroke="#000000" stroke-width="3" stroke-opacity="1" stroke-miterlimit="4"/><path stroke-linecap="butt" transform="matrix(0.749344, 0.0313561, -0.0313561, 0.749344, 203.359566, 269.835568)" fill="none" stroke-linejoin="miter" d="M 0.483505 24.392232 C 90.358864 -6.131567 180.234447 -6.128683 270.109818 24.390476 " stroke="#000000" stroke-width="3" stroke-opacity="1" stroke-miterlimit="4"/><path stroke-linecap="butt" transform="matrix(0.74914, -0.0359147, 0.0359147, 0.74914, 402.907831, 278.326299)" fill="none" stroke-linejoin="miter" d="M 0.455431 24.390768 C 95.776403 -6.131767 191.099205 -6.12961 286.418884 24.391786 " stroke="#000000" stroke-width="3" stroke-opacity="1" stroke-miterlimit="4"/><path stroke-linecap="butt" transform="matrix(0, -0.75, 0.75, 0, 616.230209, 307.356777)" fill="none" stroke-linejoin="miter" d="M 0.00174382 1.500346 L 28.741329 1.500346 " stroke="#000000" stroke-width="3" stroke-opacity="1" stroke-miterlimit="4"/><path stroke-linecap="round" transform="matrix(0.507009, 0.552668, -0.552668, 0.507009, 280.375539, 127.002121)" fill="none" stroke-linejoin="miter" d="M 3.672387 6.409195 C 10.137322 1.172605 16.596691 1.196555 23.057851 6.480729 " stroke="#000000" stroke-width="5" stroke-opacity="1" stroke-miterlimit="4"/><path stroke-linecap="round" transform="matrix(0.53033, -0.53033, 0.53033, 0.53033, 283.359044, 141.56378)" fill="none" stroke-linejoin="miter" d="M 3.673318 6.410944 C 10.133033 1.173934 16.596432 1.199714 23.056147 6.480918 " stroke="#000000" stroke-width="5" stroke-opacity="1" stroke-miterlimit="4"/><path stroke-linecap="round" transform="matrix(-0.53033, -0.53033, 0.53033, -0.53033, 297.542921, 137.966475)" fill="none" stroke-linejoin="miter" d="M 3.669609 6.409739 C 10.13669 1.172729 16.596406 1.194826 23.059804 6.479713 " stroke="#000000" stroke-width="5" stroke-opacity="1" stroke-miterlimit="4"/><path stroke-linecap="round" transform="matrix(-0.536039, 0.524559, -0.524559, -0.536039, 293.805722, 123.863545)" fill="none" stroke-linejoin="miter" d="M 3.613271 6.414842 C 9.736682 1.170172 15.861897 1.195947 21.988914 6.492167 " stroke="#000000" stroke-width="5" stroke-opacity="1" stroke-miterlimit="4"/><path stroke-linecap="round" transform="matrix(0.507009, 0.552668, -0.552668, 0.507009, 203.680412, 252.845609)" fill="none" stroke-linejoin="miter" d="M 3.672478 6.409613 C 10.137413 1.173024 16.596781 1.196974 23.057942 6.481148 " stroke="#000000" stroke-width="5" stroke-opacity="1" stroke-miterlimit="4"/><path stroke-linecap="round" transform="matrix(0.53033, -0.53033, 0.53033, 0.53033, 206.663903, 267.407267)" fill="none" stroke-linejoin="miter" d="M 3.672909 6.41103 C 10.132625 1.17402 16.596023 1.1998 23.055739 6.481004 " stroke="#000000" stroke-width="5" stroke-opacity="1" stroke-miterlimit="4"/><path stroke-linecap="round" transform="matrix(-0.53033, -0.53033, 0.53033, -0.53033, 220.847779, 263.809963)" fill="none" stroke-linejoin="miter" d="M 3.669523 6.40933 C 10.136604 1.17232 16.59632 1.194417 23.059718 6.479304 " stroke="#000000" stroke-width="5" stroke-opacity="1" stroke-miterlimit="4"/><path stroke-linecap="round" transform="matrix(-0.536039, 0.524559, -0.524559, -0.536039, 217.110581, 249.707033)" fill="none" stroke-linejoin="miter" d="M 3.613679 6.414751 C 9.73709 1.170081 15.862304 1.195856 21.989322 6.492076 " stroke="#000000" stroke-width="5" stroke-opacity="1" stroke-miterlimit="4"/><path stroke-linecap="round" transform="matrix(0.507009, 0.552668, -0.552668, 0.507009, 375.586509, 258.882902)" fill="none" stroke-linejoin="miter" d="M 3.674354 6.411057 C 10.135451 1.170947 16.59482 1.194897 23.059818 6.482592 " stroke="#000000" stroke-width="5" stroke-opacity="1" stroke-miterlimit="4"/><path stroke-linecap="round" transform="matrix(0.53033, -0.53033, 0.53033, 0.53033, 378.569985, 273.444563)" fill="none" stroke-linejoin="miter" d="M 3.675084 6.409171 C 10.1348 1.172161 16.598198 1.197941 23.057914 6.479145 " stroke="#000000" stroke-width="5" stroke-opacity="1" stroke-miterlimit="4"/><path stroke-linecap="round" transform="matrix(-0.53033, -0.53033, 0.53033, -0.53033, 392.753833, 269.847258)" fill="none" stroke-linejoin="miter" d="M 3.671355 6.411533 C 10.134753 1.17084 16.598152 1.19662 23.057867 6.477824 " stroke="#000000" stroke-width="5" stroke-opacity="1" stroke-miterlimit="4"/><path stroke-linecap="round" transform="matrix(-0.536039, 0.524559, -0.524559, -0.536039, 389.016723, 255.744329)" fill="none" stroke-linejoin="miter" d="M 3.611581 6.41669 C 9.738635 1.168297 15.863849 1.194072 21.990867 6.490292 " stroke="#000000" stroke-width="5" stroke-opacity="1" stroke-miterlimit="4"/><path stroke-linecap="round" transform="matrix(0.507009, 0.552668, -0.552668, 0.507009, 229.527782, 153.174907)" fill="none" stroke-linejoin="miter" d="M 3.671584 6.408275 C 10.136519 1.171685 16.595888 1.195635 23.057048 6.479809 " stroke="#000000" stroke-width="5" stroke-opacity="1" stroke-miterlimit="4"/><path stroke-linecap="round" transform="matrix(0.53033, -0.53033, 0.53033, 0.53033, 232.511274, 167.736551)" fill="none" stroke-linejoin="miter" d="M 3.67427 6.410206 C 10.133985 1.173196 16.597383 1.198976 23.057099 6.48018 " stroke="#000000" stroke-width="5" stroke-opacity="1" stroke-miterlimit="4"/><path stroke-linecap="round" transform="matrix(-0.53033, -0.53033, 0.53033, -0.53033, 246.695149, 164.139263)" fill="none" stroke-linejoin="miter" d="M 3.670361 6.410709 C 10.137442 1.173699 16.597157 1.195796 23.060556 6.480683 " stroke="#000000" stroke-width="5" stroke-opacity="1" stroke-miterlimit="4"/><path stroke-linecap="round" transform="matrix(-0.536039, 0.524559, -0.524559, -0.536039, 242.957953, 150.036319)" fill="none" stroke-linejoin="miter" d="M 3.612325 6.415592 C 9.735736 1.170922 15.864594 1.192975 21.991612 6.489195 " stroke="#000000" stroke-width="5" stroke-opacity="1" stroke-miterlimit="4"/><path stroke-linecap="round" transform="matrix(0.507009, 0.552668, -0.552668, 0.507009, 332.359764, 165.358715)" fill="none" stroke-linejoin="miter" d="M 3.671418 6.408033 C 10.136353 1.171443 16.595721 1.195394 23.056882 6.479567 " stroke="#000000" stroke-width="5" stroke-opacity="1" stroke-miterlimit="4"/><path stroke-linecap="round" transform="matrix(0.53033, -0.53033, 0.53033, 0.53033, 335.343268, 179.920373)" fill="none" stroke-linejoin="miter" d="M 3.67452 6.410026 C 10.134236 1.173016 16.597634 1.198796 23.057349 6.48 " stroke="#000000" stroke-width="5" stroke-opacity="1" stroke-miterlimit="4"/><path stroke-linecap="round" transform="matrix(-0.53033, -0.53033, 0.53033, -0.53033, 349.527145, 176.323054)" fill="none" stroke-linejoin="miter" d="M 3.670514 6.410928 C 10.133912 1.170235 16.597311 1.196015 23.060709 6.480902 " stroke="#000000" stroke-width="5" stroke-opacity="1" stroke-miterlimit="4"/><path stroke-linecap="round" transform="matrix(-0.536039, 0.524559, -0.524559, -0.536039, 345.789918, 162.220141)" fill="none" stroke-linejoin="miter" d="M 3.612049 6.415749 C 9.73546 1.171079 15.864318 1.193131 21.991335 6.489351 " stroke="#000000" stroke-width="5" stroke-opacity="1" stroke-miterlimit="4"/><path stroke-linecap="round" transform="matrix(0.507009, 0.552668, -0.552668, 0.507009, 519.773064, 154.913839)" fill="none" stroke-linejoin="miter" d="M 3.671676 6.40689 C 10.133091 1.174139 16.59598 1.194251 23.057141 6.478425 " stroke="#000000" stroke-width="5" stroke-opacity="1" stroke-miterlimit="4"/><path stroke-linecap="round" transform="matrix(0.53033, -0.53033, 0.53033, 0.53033, 522.756527, 169.475482)" fill="none" stroke-linejoin="miter" d="M 3.671993 6.406703 C 10.135391 1.173376 16.595107 1.195473 23.058505 6.48036 " stroke="#000000" stroke-width="5" stroke-opacity="1" stroke-miterlimit="4"/><path stroke-linecap="round" transform="matrix(-0.53033, -0.53033, 0.53033, -0.53033, 536.940454, 165.878178)" fill="none" stroke-linejoin="miter" d="M 3.673898 6.408366 C 10.133614 1.171356 16.597012 1.197136 23.06041 6.482023 " stroke="#000000" stroke-width="5" stroke-opacity="1" stroke-miterlimit="4"/><path stroke-linecap="round" transform="matrix(-0.536039, 0.524559, -0.524559, -0.536039, 533.203223, 151.775248)" fill="none" stroke-linejoin="miter" d="M 3.610935 6.415442 C 9.737989 1.167049 15.863204 1.192824 21.990222 6.489044 " stroke="#000000" stroke-width="5" stroke-opacity="1" stroke-miterlimit="4"/><path stroke-linecap="round" transform="matrix(0.507009, 0.552668, -0.552668, 0.507009, 361.423901, 112.019671)" fill="none" stroke-linejoin="miter" d="M 3.672994 6.412442 C 10.134091 1.172331 16.59346 1.196281 23.058458 6.483976 " stroke="#000000" stroke-width="5" stroke-opacity="1" stroke-miterlimit="4"/><path stroke-linecap="round" transform="matrix(0.53033, -0.53033, 0.53033, 0.53033, 364.407408, 126.581315)" fill="none" stroke-linejoin="miter" d="M 3.673715 6.407739 C 10.13343 1.170729 16.596829 1.196509 23.060227 6.481396 " stroke="#000000" stroke-width="5" stroke-opacity="1" stroke-miterlimit="4"/><path stroke-linecap="round" transform="matrix(-0.53033, -0.53033, 0.53033, -0.53033, 378.591285, 122.98401)" fill="none" stroke-linejoin="miter" d="M 3.672814 6.410136 C 10.13253 1.173126 16.595928 1.198906 23.055644 6.48011 " stroke="#000000" stroke-width="5" stroke-opacity="1" stroke-miterlimit="4"/><path stroke-linecap="round" transform="matrix(-0.536039, 0.524559, -0.524559, -0.536039, 374.854087, 108.881081)" fill="none" stroke-linejoin="miter" d="M 3.609186 6.414408 C 9.739963 1.169658 15.865177 1.195434 21.992195 6.491654 " stroke="#000000" stroke-width="5" stroke-opacity="1" stroke-miterlimit="4"/><path stroke-linecap="round" transform="matrix(0.507009, 0.552668, -0.552668, 0.507009, 558.315861, 250.51182)" fill="none" stroke-linejoin="miter" d="M 3.675349 6.40995 C 10.132925 1.173677 16.595815 1.193789 23.060813 6.481484 " stroke="#000000" stroke-width="5" stroke-opacity="1" stroke-miterlimit="4"/><path stroke-linecap="round" transform="matrix(0.53033, -0.53033, 0.53033, 0.53033, 561.299325, 265.073479)" fill="none" stroke-linejoin="miter" d="M 3.672475 6.406544 C 10.135873 1.173217 16.595589 1.195314 23.058987 6.480201 " stroke="#000000" stroke-width="5" stroke-opacity="1" stroke-miterlimit="4"/><path stroke-linecap="round" transform="matrix(-0.53033, -0.53033, 0.53033, -0.53033, 575.48318, 261.476174)" fill="none" stroke-linejoin="miter" d="M 3.673989 6.408916 C 10.133705 1.171906 16.597103 1.197686 23.056819 6.47889 " stroke="#000000" stroke-width="5" stroke-opacity="1" stroke-miterlimit="4"/><path stroke-linecap="round" transform="matrix(-0.536039, 0.524559, -0.524559, -0.536039, 571.745996, 247.373245)" fill="none" stroke-linejoin="miter" d="M 3.610432 6.415583 C 9.737486 1.167191 15.862701 1.192966 21.989719 6.489186 " stroke="#000000" stroke-width="5" stroke-opacity="1" stroke-miterlimit="4"/><path stroke-linecap="round" transform="matrix(0.507009, 0.552668, -0.552668, 0.507009, 595.064323, 156.652255)" fill="none" stroke-linejoin="miter" d="M 3.673402 6.412448 C 10.1345 1.172337 16.593868 1.196288 23.055029 6.480461 " stroke="#000000" stroke-width="5" stroke-opacity="1" stroke-miterlimit="4"/><path stroke-linecap="round" transform="matrix(0.53033, -0.53033, 0.53033, 0.53033, 598.04781, 171.213901)" fill="none" stroke-linejoin="miter" d="M 3.673711 6.408163 C 10.133427 1.171153 16.596825 1.196933 23.060223 6.48182 " stroke="#000000" stroke-width="5" stroke-opacity="1" stroke-miterlimit="4"/><path stroke-linecap="round" transform="matrix(-0.53033, -0.53033, 0.53033, -0.53033, 612.231714, 167.616596)" fill="none" stroke-linejoin="miter" d="M 3.672416 6.410107 C 10.132131 1.173097 16.595529 1.198877 23.058928 6.483764 " stroke="#000000" stroke-width="5" stroke-opacity="1" stroke-miterlimit="4"/><path stroke-linecap="round" transform="matrix(-0.536039, 0.524559, -0.524559, -0.536039, 608.494482, 153.513667)" fill="none" stroke-linejoin="miter" d="M 3.612901 6.417621 C 9.739955 1.169228 15.865169 1.195003 21.992187 6.491223 " stroke="#000000" stroke-width="5" stroke-opacity="1" stroke-miterlimit="4"/><path stroke-linecap="round" transform="matrix(0.507009, 0.552668, -0.552668, 0.507009, 560.124933, 113.929277)" fill="none" stroke-linejoin="miter" d="M 3.671584 6.40736 C 10.132998 1.174609 16.595888 1.194721 23.057048 6.478895 " stroke="#000000" stroke-width="5" stroke-opacity="1" stroke-miterlimit="4"/><path stroke-linecap="round" transform="matrix(0.53033, -0.53033, 0.53033, 0.53033, 563.108421, 128.49093)" fill="none" stroke-linejoin="miter" d="M 3.675196 6.410241 C 10.134912 1.173231 16.594627 1.195328 23.058026 6.480215 " stroke="#000000" stroke-width="5" stroke-opacity="1" stroke-miterlimit="4"/><path stroke-linecap="round" transform="matrix(-0.53033, -0.53033, 0.53033, -0.53033, 577.292252, 124.893625)" fill="none" stroke-linejoin="miter" d="M 3.673952 6.407977 C 10.133668 1.170968 16.597066 1.196748 23.060464 6.481634 " stroke="#000000" stroke-width="5" stroke-opacity="1" stroke-miterlimit="4"/><path stroke-linecap="round" transform="matrix(-0.536039, 0.524559, -0.524559, -0.536039, 573.555092, 110.790689)" fill="none" stroke-linejoin="miter" d="M 3.6114 6.415552 C 9.738454 1.167159 15.863669 1.192934 21.990686 6.489154 " stroke="#000000" stroke-width="5" stroke-opacity="1" stroke-miterlimit="4"/><path stroke-linecap="round" transform="matrix(0.507009, 0.552668, -0.552668, 0.507009, 320.348163, 249.595707)" fill="none" stroke-linejoin="miter" d="M 3.672578 6.409311 C 10.137513 1.172721 16.596882 1.196672 23.058042 6.480845 " stroke="#000000" stroke-width="5" stroke-opacity="1" stroke-miterlimit="4"/><path stroke-linecap="round" transform="matrix(0.53033, -0.53033, 0.53033, 0.53033, 323.331668, 264.157365)" fill="none" stroke-linejoin="miter" d="M 3.673194 6.41113 C 10.132909 1.17412 16.596307 1.1999 23.056023 6.481104 " stroke="#000000" stroke-width="5" stroke-opacity="1" stroke-miterlimit="4"/><path stroke-linecap="round" transform="matrix(-0.53033, -0.53033, 0.53033, -0.53033, 337.515516, 260.56006)" fill="none" stroke-linejoin="miter" d="M 3.669396 6.409642 C 10.136477 1.172632 16.596193 1.194729 23.059591 6.479616 " stroke="#000000" stroke-width="5" stroke-opacity="1" stroke-miterlimit="4"/><path stroke-linecap="round" transform="matrix(-0.536039, 0.524559, -0.524559, -0.536039, 333.778346, 246.457133)" fill="none" stroke-linejoin="miter" d="M 3.613391 6.414657 C 9.736802 1.169987 15.862017 1.195762 21.989035 6.491982 " stroke="#000000" stroke-width="5" stroke-opacity="1" stroke-miterlimit="4"/><g clip-path="url(#261f9315da)"><g clip-path="url(#abeb686629)"><g transform="matrix(1, 0, 0, 1, 278, 158)"><g clip-path="url(#e7b89b021d)"><g clip-path="url(#a58aa34f0a)"><g clip-path="url(#e15cb11369)"><path fill="#262626" d="M 0.664062 0.808594 L 10.59375 0.808594 L 10.59375 10.738281 L 0.664062 10.738281 Z M 0.664062 0.808594 " fill-opacity="1" fill-rule="nonzero"/></g></g></g></g></g></g><g clip-path="url(#3ab6666c74)"><g clip-path="url(#d1a877165a)"><g transform="matrix(1, 0, 0, 1, 237, 246)"><g clip-path="url(#535bd81123)"><g clip-path="url(#83dc087087)"><g clip-path="url(#447f68a99c)"><path fill="#262626" d="M 0.660156 0.292969 L 10.589844 0.292969 L 10.589844 10.226562 L 0.660156 10.226562 Z M 0.660156 0.292969 " fill-opacity="1" fill-rule="nonzero"/></g></g></g></g></g></g><g clip-path="url(#c296ae1238)"><g clip-path="url(#854f3deb2c)"><g transform="matrix(1, 0, 0, 1, 399, 127)"><g clip-path="url(#2db51df44a)"><g clip-path="url(#515a3ea9bf)"><g clip-path="url(#3a4a1d4f02)"><path fill="#262626" d="M 0.160156 0.121094 L 10.09375 0.121094 L 10.09375 10.050781 L 0.160156 10.050781 Z M 0.160156 0.121094 " fill-opacity="1" fill-rule="nonzero"/></g></g></g></g></g></g><g clip-path="url(#91e067ff8e)"><g clip-path="url(#50a0fc7683)"><g transform="matrix(1, 0, 0, 1, 203, 114)"><g clip-path="url(#783cdb825f)"><g clip-path="url(#2f205a62f4)"><g clip-path="url(#61b11e8f3f)"><path fill="#262626" d="M 0.453125 0.820312 L 10.386719 0.820312 L 10.386719 10.753906 L 0.453125 10.753906 Z M 0.453125 0.820312 " fill-opacity="1" fill-rule="nonzero"/></g></g></g></g></g></g><g clip-path="url(#fa174cc898)"><g clip-path="url(#a80eef09d4)"><g transform="matrix(1, 0, 0, 1, 355, 248)"><g clip-path="url(#9c928b6739)"><g clip-path="url(#42e7995a42)"><g clip-path="url(#eca089d0b2)"><path fill="#262626" d="M 0.75 0.582031 L 10.683594 0.582031 L 10.683594 10.515625 L 0.75 10.515625 Z M 0.75 0.582031 " fill-opacity="1" fill-rule="nonzero"/></g></g></g></g></g></g><g clip-path="url(#416d1c2662)"><g clip-path="url(#7b059a8a41)"><g transform="matrix(1, 0, 0, 1, 328, 132)"><g clip-path="url(#2cb3aeb3e0)"><g clip-path="url(#7f09caa887)"><g clip-path="url(#46a578be1c)"><path fill="#262626" d="M 0.480469 0.730469 L 10.410156 0.730469 L 10.410156 10.664062 L 0.480469 10.664062 Z M 0.480469 0.730469 " fill-opacity="1" fill-rule="nonzero"/></g></g></g></g></g></g><g clip-path="url(#b98d9e4c9d)"><g clip-path="url(#9019a891b1)"><g transform="matrix(1, 0, 0, 1, 389, 168)"><g clip-path="url(#7f26d84b14)"><g clip-path="url(#ebf3461bfe)"><g clip-path="url(#0ac9bf830d)"><path fill="#262626" d="M 0.230469 0.652344 L 10.160156 0.652344 L 10.160156 10.585938 L 0.230469 10.585938 Z M 0.230469 0.652344 " fill-opacity="1" fill-rule="nonzero"/></g></g></g></g></g></g><g clip-path="url(#7662155a48)"><g clip-path="url(#6ac7648be9)"><g transform="matrix(1, 0, 0, 1, 396, 248)"><g clip-path="url(#da1214a683)"><g clip-path="url(#1f82ac38e3)"><g clip-path="url(#aa8c906522)"><path fill="#262626" d="M 0.140625 0.644531 L 10.074219 0.644531 L 10.074219 10.574219 L 0.140625 10.574219 Z M 0.140625 0.644531 " fill-opacity="1" fill-rule="nonzero"/></g></g></g></g></g></g><g clip-path="url(#c58ff88b6c)"><g clip-path="url(#414b69ac91)"><g transform="matrix(1, 0, 0, 1, 561, 152)"><g clip-path="url(#0bbd1d8b11)"><g clip-path="url(#eb77f4324f)"><g clip-path="url(#810281a8d5)"><path fill="#262626" d="M 0.625 0.339844 L 10.558594 0.339844 L 10.558594 10.273438 L 0.625 10.273438 Z M 0.625 0.339844 " fill-opacity="1" fill-rule="nonzero"/></g></g></g></g></g></g><g clip-path="url(#afc3c797b8)"><g clip-path="url(#25839398c4)"><g transform="matrix(1, 0, 0, 1, 475, 126)"><g clip-path="url(#6fb3a1946b)"><g clip-path="url(#86699cf279)"><g clip-path="url(#225bcb6461)"><path fill="#262626" d="M 0.941406 0.941406 L 10.871094 0.941406 L 10.871094 10.875 L 0.941406 10.875 Z M 0.941406 0.941406 " fill-opacity="1" fill-rule="nonzero"/></g></g></g></g></g></g><g clip-path="url(#ef0dc9466c)"><g clip-path="url(#e3f54ed046)"><g transform="matrix(1, 0, 0, 1, 619, 251)"><g clip-path="url(#69a8c14a59)"><g clip-path="url(#a5bca6dca1)"><g clip-path="url(#2a5a04f3e6)"><path fill="#262626" d="M 0.355469 0.273438 L 10.289062 0.273438 L 10.289062 10.207031 L 0.355469 10.207031 Z M 0.355469 0.273438 " fill-opacity="1" fill-rule="nonzero"/></g></g></g></g></g></g><path stroke-linecap="round" transform="matrix(0.507009, 0.552668, -0.552668, 0.507009, 440.473037, 248.850716)" fill="none" stroke-linejoin="miter" d="M 3.671608 6.408193 C 10.136544 1.171603 16.595912 1.195554 23.057073 6.479727 " stroke="#000000" stroke-width="5" stroke-opacity="1" stroke-miterlimit="4"/><path stroke-linecap="round" transform="matrix(0.53033, -0.53033, 0.53033, 0.53033, 443.456525, 263.412376)" fill="none" stroke-linejoin="miter" d="M 3.67437 6.410223 C 10.134086 1.173213 16.597484 1.198993 23.0572 6.480197 " stroke="#000000" stroke-width="5" stroke-opacity="1" stroke-miterlimit="4"/><path stroke-linecap="round" transform="matrix(-0.53033, -0.53033, 0.53033, -0.53033, 457.640428, 259.815072)" fill="none" stroke-linejoin="miter" d="M 3.670355 6.410766 C 10.137436 1.173756 16.597152 1.195853 23.06055 6.48074 " stroke="#000000" stroke-width="5" stroke-opacity="1" stroke-miterlimit="4"/><path stroke-linecap="round" transform="matrix(-0.536039, 0.524559, -0.524559, -0.536039, 453.90322, 245.712113)" fill="none" stroke-linejoin="miter" d="M 3.612269 6.415563 C 9.735681 1.170892 15.864538 1.192945 21.991556 6.489165 " stroke="#000000" stroke-width="5" stroke-opacity="1" stroke-miterlimit="4"/><path stroke-linecap="round" transform="matrix(0.507009, 0.552668, -0.552668, 0.507009, 434.042885, 107.296503)" fill="none" stroke-linejoin="miter" d="M 3.671561 6.40731 C 10.132975 1.174558 16.595865 1.19467 23.057025 6.478844 " stroke="#000000" stroke-width="5" stroke-opacity="1" stroke-miterlimit="4"/><path stroke-linecap="round" transform="matrix(0.53033, -0.53033, 0.53033, 0.53033, 437.026349, 121.858146)" fill="none" stroke-linejoin="miter" d="M 3.675262 6.410252 C 10.134977 1.173242 16.594693 1.195339 23.058091 6.480226 " stroke="#000000" stroke-width="5" stroke-opacity="1" stroke-miterlimit="4"/><path stroke-linecap="round" transform="matrix(-0.53033, -0.53033, 0.53033, -0.53033, 451.210204, 118.260842)" fill="none" stroke-linejoin="miter" d="M 3.673964 6.40802 C 10.13368 1.17101 16.597078 1.19679 23.060476 6.481677 " stroke="#000000" stroke-width="5" stroke-opacity="1" stroke-miterlimit="4"/><path stroke-linecap="round" transform="matrix(-0.536039, 0.524559, -0.524559, -0.536039, 447.473044, 104.157912)" fill="none" stroke-linejoin="miter" d="M 3.611351 6.415571 C 9.738405 1.167178 15.863619 1.192953 21.990637 6.489173 " stroke="#000000" stroke-width="5" stroke-opacity="1" stroke-miterlimit="4"/><g clip-path="url(#c348c8cded)"><g clip-path="url(#8a477ce183)"><g transform="matrix(1, 0, 0, 1, 522, 252)"><g clip-path="url(#4bfa0e02cf)"><g clip-path="url(#5b8664a3fd)"><g clip-path="url(#8be1ef5c89)"><path fill="#262626" d="M 0.9375 0.832031 L 10.871094 0.832031 L 10.871094 10.765625 L 0.9375 10.765625 Z M 0.9375 0.832031 " fill-opacity="1" fill-rule="nonzero"/></g></g></g></g></g></g><g clip-path="url(#e216988f9d)"><g clip-path="url(#7fbfa47c82)"><g transform="matrix(1, 0, 0, 1, 485, 238)"><g clip-path="url(#4c0864c9f1)"><g clip-path="url(#fec311c161)"><g clip-path="url(#d6ac527fd6)"><path fill="#262626" d="M 0.871094 0.996094 L 10.804688 0.996094 L 10.804688 10.925781 L 0.871094 10.925781 Z M 0.871094 0.996094 " fill-opacity="1" fill-rule="nonzero"/></g></g></g></g></g></g><g clip-path="url(#bb89103276)"><g clip-path="url(#1f84aa29bf)"><g transform="matrix(1, 0, 0, 1, 490, 152)"><g clip-path="url(#27541780f7)"><g clip-path="url(#72b6dde0a2)"><g clip-path="url(#53d800b90f)"><path fill="#262626" d="M 0.839844 0.339844 L 10.769531 0.339844 L 10.769531 10.273438 L 0.839844 10.273438 Z M 0.839844 0.339844 " fill-opacity="1" fill-rule="nonzero"/></g></g></g></g></g></g></svg>